# xmcd
#
# Track frame offsets: 
#        150
#        15751
#        31084
#        47361
#        61467
#        82165
#        101070
#        118541
#        138847
#        153323
#        172838
#        195196
#        214226
#
# Disc length: 3077 seconds
#
# Revision: 0
# Processed by: cddbd v1.5.2PL0 Copyright (c) Steve Scherf et al.
# Submitted via: ExactAudioCopy v1.1
#
DISCID=970c030d
DTITLE=Arthur Adams - Look What The Blues Has Done For Me - An Introdu
DTITLE=ction To Arthur Adams [CD1)
DYEAR=2017
DGENRE=Blues
TTITLE0=You Pullin' My Leg
TTITLE1=Look What The Blues Has Done For Me
TTITLE2=Helpin' Hand Man
TTITLE3=No Refunds
TTITLE4=Low Down And Dirty
TTITLE5=All Dressed Up
TTITLE6=Elevator Ride
TTITLE7=I've Had Enough
TTITLE8=Dump You
TTITLE9=Leftover From Yesterday
TTITLE10=Gutbucket
TTITLE11=If You Let Me Love You
TTITLE12=Gorgeous
EXTD=
EXTT0=
EXTT1=
EXTT2=
EXTT3=
EXTT4=
EXTT5=
EXTT6=
EXTT7=
EXTT8=
EXTT9=
EXTT10=
EXTT11=
EXTT12=
PLAYORDER=
